<?xml version="1.0" standalone="no"?>
<!DOCTYPE svg PUBLIC "-//W3C//DTD SVG 20010904//EN"
 "http://www.w3.org/TR/2001/REC-SVG-20010904/DTD/svg10.dtd">
<svg version="1.0" xmlns="http://www.w3.org/2000/svg"
 width="300.000000pt" height="100.000000pt" viewBox="0 0 300.000000 100.000000"
 preserveAspectRatio="xMidYMid meet">
<metadata>
Created by potrace 1.10, written by Peter Selinger 2001-2011
</metadata>
<g transform="translate(0.000000,100.000000) scale(0.100000,-0.100000)"
fill="#000000" stroke="none">
<path d="M222 913 c-32 -6 -89 -66 -97 -103 -23 -106 47 -190 159 -190 59 0
82 10 138 59 25 23 49 41 52 41 3 0 6 -17 6 -38 0 -42 24 -73 73 -91 35 -13
104 -14 111 -2 3 5 24 7 46 4 43 -6 80 15 80 46 0 10 13 2 39 -23 36 -35 42
-37 97 -37 33 1 91 -1 129 -4 65 -6 74 -4 123 25 28 17 52 35 52 40 0 18 -21
22 -38 7 -48 -41 -133 -59 -185 -38 -17 6 -17 8 -3 20 39 32 63 215 32 240 -8
7 -34 11 -58 9 -55 -4 -68 -28 -68 -127 0 -57 5 -81 21 -107 l21 -34 -39 0
c-58 0 -87 34 -88 103 0 39 -4 52 -15 52 -10 0 -17 -14 -21 -40 -7 -55 -35
-105 -58 -105 -25 0 -37 17 -45 65 -11 65 -26 93 -57 105 -49 21 -143 -12
-209 -72 -53 -48 -92 -68 -133 -68 -47 0 -102 22 -115 47 -9 16 -15 73 -13
114 2 28 51 69 83 69 35 0 83 -24 97 -47 7 -14 13 -15 21 -7 18 18 -9 52 -59
75 -24 10 -46 18 -50 18 -3 -1 -16 -4 -29 -6z m792 -133 c-1 -37 -8 -82 -18
-105 l-17 -40 -20 24 c-14 17 -19 39 -19 85 0 93 7 108 44 104 l31 -3 -1 -65z
m-374 -46 c6 -15 11 -47 13 -73 l2 -46 -48 2 c-66 2 -97 24 -97 68 0 48 29 75
80 75 34 0 42 -4 50 -26z"/>
<path d="M1541 845 c-58 -10 -90 -20 -104 -34 -19 -19 -20 -21 -3 -27 10 -4
21 -2 25 5 4 6 34 16 67 21 77 13 609 12 699 -1 39 -5 107 -12 153 -16 88 -6
112 -21 112 -68 0 -11 11 -54 25 -95 13 -41 25 -90 25 -107 0 -23 5 -33 15
-33 23 0 19 63 -10 150 -14 41 -25 84 -25 95 0 28 -25 62 -58 79 -15 7 -76 16
-137 20 -60 4 -141 11 -180 16 -102 14 -505 10 -604 -5z"/>
<path d="M804 839 c-10 -17 13 -36 27 -22 12 12 4 33 -11 33 -5 0 -12 -5 -16
-11z"/>
<path d="M173 458 c17 -132 29 -171 60 -210 l32 -40 295 7 c162 4 340 8 395
10 87 2 100 5 104 20 3 17 -7 18 -170 12 -96 -4 -273 -9 -394 -12 l-220 -6
-23 31 c-17 21 -27 52 -33 103 -13 107 -19 127 -36 127 -13 0 -14 -8 -10 -42z"/>
<path d="M1317 433 c-4 -3 -7 -13 -7 -22 0 -36 -23 -93 -48 -124 -15 -18 -32
-41 -38 -52 -6 -11 -34 -31 -62 -45 -50 -24 -69 -50 -37 -50 26 0 92 38 113
64 16 21 21 23 33 11 8 -7 49 -22 91 -34 67 -18 103 -20 265 -19 182 2 189 2
221 26 31 23 32 24 32 4 0 -14 12 -25 40 -36 44 -17 65 -13 81 16 11 20 12 20
35 -6 35 -37 94 -37 123 0 12 15 21 33 21 42 0 10 6 12 23 8 12 -4 36 -9 53
-12 26 -5 30 -10 26 -29 -6 -34 27 -47 104 -43 44 2 65 -1 69 -9 6 -17 145
-17 181 -1 22 10 28 10 32 0 6 -19 32 -14 32 7 0 11 14 31 32 45 38 30 53 22
68 -35 12 -45 22 -47 69 -18 23 14 30 24 23 31 -7 7 -17 6 -32 -2 -26 -14 -24
-15 -43 33 -9 21 -23 37 -32 37 -11 0 -15 6 -11 17 2 10 7 37 11 59 9 60 -9
64 -60 14 -39 -38 -44 -49 -47 -93 -3 -47 -4 -49 -43 -63 -56 -19 -155 -19
-155 1 0 8 14 22 32 31 25 13 36 14 50 5 15 -9 20 -8 24 3 15 40 -32 47 -100
16 -24 -11 -46 -27 -50 -35 -5 -13 -18 -16 -63 -13 l-58 3 3 32 c3 31 1 33
-26 33 -16 0 -49 7 -72 15 -23 8 -46 15 -50 15 -5 0 -14 -19 -22 -42 -11 -36
-18 -44 -41 -46 -28 -3 -67 20 -67 40 0 24 -45 68 -71 68 -26 0 -102 -37 -148
-72 -13 -10 -39 -18 -57 -18 l-33 0 24 24 c27 27 42 73 29 86 -5 5 -21 11 -35
15 -21 5 -31 0 -57 -30 -18 -19 -32 -46 -32 -59 0 -26 -31 -41 -48 -24 -6 6
-19 15 -30 22 -35 20 -166 128 -209 173 -45 46 -46 47 -56 36z m91 -109 c37
-31 78 -66 92 -78 14 -12 36 -29 50 -39 24 -17 24 -17 -32 -17 -67 0 -228 38
-235 56 -2 6 7 28 21 49 14 21 26 48 26 61 0 13 2 24 5 24 3 0 36 -25 73 -56z
m336 -75 c-8 -16 -16 -29 -18 -29 -3 0 -11 -3 -20 -6 -23 -9 -20 18 4 49 12
15 27 24 35 21 13 -5 12 -10 -1 -35z m987 -22 c-19 -29 -21 -30 -21 -9 0 12 8
35 17 49 15 22 19 24 21 10 2 -10 -6 -32 -17 -50z m-743 3 c5 -29 -22 -54 -51
-46 -31 7 -34 22 -10 48 19 22 56 20 61 -2z"/>
</g>
</svg>
